<?xml version="1.0" encoding="iso-8859-1"?>
<!-- Generator: Adobe Illustrator 19.0.0, SVG Export Plug-In . SVG Version: 6.00 Build 0)  -->
<svg version="1.1" id="Layer_1" xmlns="http://www.w3.org/2000/svg" xmlns:xlink="http://www.w3.org/1999/xlink" x="0px" y="0px"
	 viewBox="0 0 512.002 512.002" style="enable-background:new 0 0 512.002 512.002;" xml:space="preserve">
<circle style="fill:#CEE8FA;" cx="157.341" cy="399.324" r="96.587"/>
<g>
	<path style="fill:#2D527C;" d="M253.933,78.925c-8.891,0-16.098,7.209-16.098,16.098v225.539
		c-20.468-20.916-48.981-33.929-80.489-33.929c-62.134,0-112.685,50.55-112.685,112.685s50.55,112.685,112.685,112.685
		s112.685-50.55,112.685-112.685V95.023C270.03,86.132,262.824,78.925,253.933,78.925z M157.346,479.805
		c-44.382,0-80.489-36.107-80.489-80.489s36.107-80.489,80.489-80.489s80.489,36.107,80.489,80.489S201.728,479.805,157.346,479.805
		z"/>
	<path style="fill:#2D527C;" d="M314.419,415.414c-8.889,0-16.098-7.209-16.098-16.098V149.798c0-8.889,7.209-16.098,16.098-16.098
		c8.889,0,16.098,7.209,16.098,16.098v249.518C330.517,408.205,323.31,415.414,314.419,415.414z"/>
	<path style="fill:#2D527C;" d="M451.23,175.514c-3.281,0-6.59-1-9.448-3.075L244.473,29.123
		c-7.193-5.224-8.788-15.291-3.564-22.485c5.224-7.193,15.293-8.788,22.484-3.564l197.31,143.314
		c7.194,5.224,8.789,15.291,3.564,22.485C461.117,173.21,456.206,175.514,451.23,175.514z"/>
</g>
<g>
</g>
<g>
</g>
<g>
</g>
<g>
</g>
<g>
</g>
<g>
</g>
<g>
</g>
<g>
</g>
<g>
</g>
<g>
</g>
<g>
</g>
<g>
</g>
<g>
</g>
<g>
</g>
<g>
</g>
</svg>
